<?xml version="1.0" encoding="utf-8"?>
<!-- Generator: Adobe Illustrator 21.0.2, SVG Export Plug-In . SVG Version: 6.00 Build 0)  -->
<svg version="1.1" id="Layer_1" xmlns="http://www.w3.org/2000/svg" xmlns:xlink="http://www.w3.org/1999/xlink" x="0px" y="0px"
	 viewBox="0 0 18 18" style="enable-background:new 0 0 18 18;" xml:space="preserve">
<style type="text/css">
	.st0{fill:#FFFFFF;}
</style>
<title>Shape</title>
<desc>Created with Sketch.</desc>
<g id="Page-1">
	<g id="Resources-Grid-1--Menu" transform="translate(-366.000000, -37.000000)">
		<path id="Shape" class="st0" d="M376.1,45.9l7.7-7.6c0.3-0.3,0.3-0.8,0-1.1c-0.3-0.3-0.8-0.3-1.1,0l-7.7,7.7l-7.7-7.7
			c-0.2-0.2-0.5-0.3-0.7-0.2c-0.3,0.1-0.5,0.3-0.5,0.5c-0.1,0.3,0,0.5,0.2,0.7l7.7,7.6l-7.7,7.7c-0.3,0.3-0.3,0.8,0,1.1
			c0.3,0.3,0.8,0.3,1.1,0L375,47l7.7,7.7c0.3,0.3,0.8,0.3,1.1,0c0.3-0.3,0.3-0.8,0-1.1L376.1,45.9z"/>
	</g>
</g>
</svg>
