<?xml version="1.0" encoding="utf-8"?>
<!-- Generator: Adobe Illustrator 21.0.2, SVG Export Plug-In . SVG Version: 6.00 Build 0)  -->
<svg version="1.1" id="Layer_1" xmlns="http://www.w3.org/2000/svg" xmlns:xlink="http://www.w3.org/1999/xlink" x="0px" y="0px"
	 viewBox="0 0 20 20" style="enable-background:new 0 0 20 20;" xml:space="preserve">
<style type="text/css">
	.st0{fill:#97A3AB;}
</style>
<g>
	<g>
		<path class="st0" d="M11.6,20H7.3v-9H4.9V6.9h2.4V4.6C7.3,2.5,8.6,0,12.3,0c1.3,0,2.3,0.1,2.3,0.1l0.4,0.1L15,4l-0.4,0
			c0,0-1,0-2.1,0c-0.8,0-0.9,0.2-0.9,1v1.9h3.5L14.9,11h-3.3L11.6,20L11.6,20z M8.2,19.1h2.5v-9h3.4l0.1-2.3h-3.5V5
			c0-0.9,0.2-1.9,1.8-1.9c0.6,0,1.2,0,1.6,0L14.2,1c-0.4,0-1-0.1-1.8-0.1c-3.1,0-4.2,1.9-4.2,3.7v3.2H5.8v2.3h2.4L8.2,19.1L8.2,19.1
			z M8.2,19.1"/>
	</g>
</g>
</svg>
