<?xml version="1.0" encoding="utf-8"?>
<!-- Generator: Adobe Illustrator 21.0.2, SVG Export Plug-In . SVG Version: 6.00 Build 0)  -->
<svg version="1.1" id="Layer_1" xmlns="http://www.w3.org/2000/svg" xmlns:xlink="http://www.w3.org/1999/xlink" x="0px" y="0px"
	 viewBox="0 0 20 20" style="enable-background:new 0 0 20 20;" xml:space="preserve">
<style type="text/css">
	.st0{fill:#97A3AB;}
</style>
<g>
	<g>
		<path class="st0" d="M5.2,20H0.3V6.4h4.9V20z M1.2,19.1h3.1V7.2H1.2V19.1z M2.7,5.5C1.2,5.5,0,4.3,0,2.8C0,1.3,1.2,0,2.7,0
			c1.5,0,2.7,1.2,2.7,2.7C5.5,4.3,4.3,5.5,2.7,5.5L2.7,5.5z M2.7,0.9c-1,0-1.9,0.8-1.9,1.8c0,1,0.8,1.8,1.9,1.8c1,0,1.9-0.8,1.9-1.8
			C4.6,1.7,3.8,0.9,2.7,0.9L2.7,0.9z M20,20h-4.8v-6.6c0-2-0.2-2.9-1.6-2.9c-1.4,0-1.9,0.8-1.9,2.8V20H6.8V6.4h4.7v1
			C12.2,6.6,13.3,6,14.8,6c4.6,0,5.2,3.3,5.2,6.5L20,20L20,20z M16,19.1h3.1v-6.5c0-3.5-0.7-5.6-4.3-5.6c-1.8,0-2.9,1-3.4,1.8
			L11.3,9h-0.8V7.2H7.7v11.8h3.1v-5.9c0-1,0-3.7,2.8-3.7C16,9.5,16,12,16,13.3L16,19.1L16,19.1z M16,19.1"/>
	</g>
</g>
</svg>
